<?xml version="1.0" encoding="utf-8"?>
<!-- Generator: Adobe Illustrator 19.0.0, SVG Export Plug-In . SVG Version: 6.00 Build 0)  -->
<svg version="1.1" id="Capa_1" xmlns="http://www.w3.org/2000/svg" xmlns:xlink="http://www.w3.org/1999/xlink" x="0px" y="0px"
	 viewBox="0 0 595.3 841.9" style="enable-background:new 0 0 595.3 841.9;" xml:space="preserve">
<style type="text/css">
	.st0{fill:url(#XMLID_2_);}
</style>
<linearGradient id="XMLID_2_" gradientUnits="userSpaceOnUse" x1="22.9551" y1="251.9846" x2="397.0547" y2="251.9846">
	<stop  offset="0" style="stop-color:#16072A"/>
	<stop  offset="0.2118" style="stop-color:#24087B"/>
	<stop  offset="0.3103" style="stop-color:#2D0875"/>
	<stop  offset="0.468" style="stop-color:#3D096A"/>
	<stop  offset="1" style="stop-color:#F3549C"/>
</linearGradient>
<path id="XMLID_4_" class="st0" d="M393.1,38.5c-3.4-1.5-7.3,0.1-8.7,3.4L210,444.1L39.7,52.2l68.3,0.4l95.5,221.7
	c1.1,2.5,3.5,4,6.1,4c0.9,0,1.8-0.2,2.6-0.5c1.9-0.8,3.2-2.4,3.7-4.2c0.6-0.8,1.1-1.6,1.3-2.6L283,116.9l29.8-69.5
	c0.2-0.6,0.4-1.1,0.5-1.7c0.4-1.7,0.1-3.4-0.9-4.9c-1.2-1.9-3.3-2.8-5.5-2.8h-0.1c-0.7,0-1.4,0-2,0.2c-0.2,0.1-0.3,0.1-0.5,0.1
	L252.3,39c-3.4-1.4-7.2,0.1-8.7,3.5l-33.6,78.9l-33.5-78.7c-1.4-3.4-5.3-4.9-8.7-3.5c-2.6,1.1-4.1,3.7-4,6.4c0,1,0.1,1.9,0.5,2.9
	l39.1,91.2c0.2,0.5,0.5,0.8,0.8,1.2c0.1,0.1,0.2,0.3,0.3,0.4c0.3,0.4,0.7,0.7,1.1,1c0.1,0.1,0.2,0.2,0.3,0.3
	c0.4,0.3,0.9,0.5,1.4,0.7c0.1,0,0.2,0.8,0.3,0.8c0.6,0.2,1.3,0.9,1.9,0.9h1h0.2c0.4,0,0.9-0.8,1.3-0.9c0.1,0,0.3-0.4,0.4-0.4
	c2.3-0.7,4.1-2.7,4.6-5.1l36.9-86.4l42.2-0.6l-86.4,202L119.8,43.4c-0.2-0.5-0.5-0.9-0.8-1.3c-1.2-1.9-3.2-3.1-5.5-3.1l-83.9-1
	c0,0,0,0,0,0c-2.2,0-4.3,1.5-5.5,3.4c-1.2,1.9-1.4,4.7-0.5,6.8l179.8,413.9c1.1,2.4,3.4,3.9,6.1,3.9h1.2c2.6,0,5-1.6,6.1-4
	L396.5,47.2C398,43.9,396.4,40,393.1,38.5z"/>
</svg>
